<?xml version="1.0" encoding="utf-8"?>
<svg viewBox="0 0 512 1024" xmlns="http://www.w3.org/2000/svg">
  <path d="M 258.371 683.489 C 220.871 683.489 191.108 713.889 191.108 750.753 C 191.108 787.617 220.248 819.289 258.371 819.289 C 296.494 819.289 325.634 788.89 325.634 752.026 C 325.634 715.162 295.857 683.489 258.371 683.489 Z M 437.527 816.389 L 392.827 751.389 L 437.492 687.019 C 441.971 680.565 438.273 671.642 430.542 670.242 L 353.448 656.308 L 339.514 579.214 C 338.117 571.483 329.195 567.784 322.737 572.265 L 258.371 617.563 L 193.371 572.895 C 186.917 568.416 177.995 572.112 176.594 579.843 L 163.311 656.966 L 86.189 670.9 C 78.46 672.244 74.762 681.226 79.24 687.026 L 123.908 752.026 L 79.243 816.396 C 74.764 822.85 78.461 831.773 86.191 833.173 L 163.286 847.107 L 177.219 924.201 C 178.616 931.932 187.539 935.631 193.996 931.15 L 258.371 886.481 L 322.741 931.147 C 329.197 935.627 338.125 931.93 339.518 924.2 L 353.452 847.105 L 430.546 833.172 C 438.305 831.808 441.983 822.825 437.527 816.389 Z M 258.371 841.922 C 208.373 841.922 168.475 801.388 168.475 752.026 C 168.475 702.028 209.009 662.129 258.371 662.129 C 307.733 662.129 348.267 702.657 348.267 752.026 C 348.267 802.031 308.376 841.922 258.371 841.922 Z" style="fill: rgb(255, 255, 255);"/>
  <path d="M 105.342 261.486 C 105.342 170.193 179.305 96.304 270.376 96.304 C 278.753 96.304 292.277 97.534 300.537 99.066 C 307.628 100.377 309.201 109.855 302.955 113.402 C 262.412 136.493 237.487 179.337 237.487 225.942 C 237.487 306.837 311.015 368.264 391.091 352.999 C 398.142 351.668 403.097 359.875 398.547 365.498 C 367.789 403.512 321.258 426.667 270.376 426.667 C 179.158 426.667 105.342 352.63 105.342 261.486 Z" style="fill: rgb(255, 255, 255);"/>
</svg>